<svg width="224" height="29" viewBox="0 0 224 29" fill="none" xmlns="http://www.w3.org/2000/svg">
<circle cx="2" cy="19" r="2" fill="#353535"/>
<circle cx="13" cy="15" r="2" fill="#353535"/>
<circle cx="24" cy="8" r="2" fill="#353535"/>
<circle cx="35" cy="5" r="2" fill="#353535"/>
<circle cx="46" cy="7" r="2" fill="#353535"/>
<circle cx="57" cy="13" r="2" fill="#353535"/>
<circle cx="68" cy="21" r="2" fill="#353535"/>
<circle cx="79" cy="27" r="2" fill="#353535"/>
<circle cx="90" cy="26" r="2" fill="#353535"/>
<circle cx="101" cy="22" r="2" fill="#353535"/>
<circle cx="112" cy="14" r="2" fill="#353535"/>
<circle cx="123" cy="5" r="2" fill="#353535"/>
<circle cx="134" cy="2" r="2" fill="#353535"/>
<circle cx="145" cy="3" r="2" fill="#353535"/>
<circle cx="156" cy="8" r="2" fill="#353535"/>
<circle cx="167" cy="13" r="2" fill="#353535"/>
<circle cx="178" cy="18" r="2" fill="#353535"/>
<circle cx="189" cy="21" r="2" fill="#353535"/>
<circle cx="200" cy="21" r="2" fill="#353535"/>
<circle cx="211" cy="18" r="2" fill="#353535"/>
<circle cx="222" cy="18" r="2" fill="#353535"/>
</svg>
